<svg width="62" height="79" viewBox="0 0 62 79" fill="none" xmlns="http://www.w3.org/2000/svg">
<path d="M24.8 1.06137e-05C23.0879 1.06137e-05 21.7 1.36038 21.7 3.03847C21.7 18.404 0 30.3846 0 51.6538C0 67.8119 17.8668 78.2584 24.1582 78.9347C24.3692 78.9783 24.5843 79.0002 24.8 79C26.5121 79 27.9 77.6396 27.9 75.9615C27.8995 75.0475 27.4792 74.1822 26.7557 73.6055C26.7557 73.6036 26.7557 73.6016 26.7557 73.5996C23.9347 71.3572 18.6 64.8519 18.6 58.9117C18.6 49.1613 27.9 45.5769 27.9 45.5769C22.5959 60.2831 39.9759 62.06 43.4727 76.6203H43.4787C43.7933 78.0089 45.0487 78.9977 46.5 79C47.1528 78.9984 47.7885 78.7949 48.3164 78.4184C48.3723 78.3787 48.4268 78.3371 48.4799 78.2938C48.9844 77.9726 62 69.5353 62 51.6538C62 44.3536 58.2748 31.8142 55.5941 26.2601C55.5919 26.2555 55.5903 26.2469 55.5881 26.2423C55.5861 26.2384 55.5841 26.2344 55.582 26.2305C55.1149 25.0706 53.9722 24.3083 52.7 24.3077C51.2062 24.3091 49.9258 25.3544 49.6545 26.7942C49.6545 26.7982 49.6545 26.8022 49.6545 26.8061C49.6469 26.8393 48.2231 33.0373 43.4 36.4615C43.4 22.1454 32.8549 7.35798 27.2945 1.24031C27.2111 1.12953 27.1201 1.02445 27.0221 0.925779C26.4395 0.335526 25.6379 0.00156869 24.8 0V1.06137e-05Z" fill="url(#paint0_radial_1_843)"/>
<defs>
<radialGradient id="paint0_radial_1_843" cx="0" cy="0" r="1" gradientUnits="userSpaceOnUse" gradientTransform="translate(31 0.0107722) rotate(90) scale(78.9892 61.9915)">
<stop stop-color="#8D90FF"/>
<stop offset="1" stop-color="#5458F7"/>
</radialGradient>
</defs>
</svg>
