<svg width="69" height="83" viewBox="0 0 69 83" fill="none" xmlns="http://www.w3.org/2000/svg">
<path d="M34.5887 0.00134761C33.8864 -0.0209139 33.2028 0.233346 32.6807 0.711008C32.6807 0.711008 19.0479 12.9122 2.72368 12.9122C1.2195 12.9123 0.00015202 14.1509 0 15.6788V38.2907C0 50.6077 5.60973 70.8751 33.4432 82.7833C34.119 83.0722 34.881 83.0722 35.5568 82.7833C63.3903 70.875 69 50.6077 69 38.2907V15.6788C68.9998 14.1509 67.7805 12.9123 66.2763 12.9122C49.9521 12.9122 36.3193 0.711008 36.3193 0.711008C35.8427 0.274822 35.2298 0.0235062 34.5887 0.00134761ZM34.5 16.601C36.0071 16.601 37.2237 17.8367 37.2237 19.3676V22.1522C41.055 22.5764 44.307 25.3815 45.3238 29.31C45.7051 30.7856 44.833 32.2981 43.3803 32.6854C41.9277 33.0728 40.4386 32.1869 40.0573 30.7113C39.5852 28.8854 38.0243 27.6133 36.2449 27.6133H33.319C30.904 27.6133 28.9604 29.6962 28.9604 32.2784C28.9604 34.8421 30.904 36.9434 33.319 36.9434H36.6598C42.5248 36.9434 47.3027 41.9048 47.3027 48.0098C47.3027 53.9119 42.8345 58.7447 37.2237 59.0582V61.7888C37.2237 63.3196 36.0071 64.5554 34.5 64.5554C32.9929 64.5554 31.7763 63.3196 31.7763 61.7888V58.9862C27.9813 58.5066 24.7844 55.6844 23.8039 51.7743C23.4407 50.2803 24.312 48.7862 25.7828 48.3989C27.2354 48.03 28.7249 48.9334 29.0881 50.409C29.542 52.2534 31.1211 53.543 32.9005 53.543H36.6598C39.5287 53.543 41.8554 51.0715 41.8554 48.0098C41.8554 44.9481 39.5287 42.4766 36.6598 42.4766H33.319C27.908 42.4766 23.5131 37.9038 23.5131 32.2784C23.5131 27.1878 27.0916 22.9809 31.7763 22.2062V19.3676C31.7763 17.8367 32.9929 16.601 34.5 16.601L34.5 16.601Z" fill="url(#paint0_radial_1_849)"/>
<defs>
<radialGradient id="paint0_radial_1_849" cx="0" cy="0" r="1" gradientUnits="userSpaceOnUse" gradientTransform="translate(34.5 0.0113176) rotate(90) scale(82.9887 68.9906)">
<stop stop-color="#8D90FF"/>
<stop offset="1" stop-color="#5458F7"/>
</radialGradient>
</defs>
</svg>
