<svg width="76" height="69" viewBox="0 0 76 69" fill="none" xmlns="http://www.w3.org/2000/svg">
<path d="M20.5974 0.0937566C6.05767 0.0937566 5.32594 17.6925 0 24.4688C0 27.1069 5.71224 34.4598 12.5922 37.2061L12.466 40.6553L2.85168 44.152C4.63106 47.3817 11.9438 51.2813 20.7188 51.2813C21.7669 51.2813 22.802 51.2193 23.8013 51.1218C23.4479 50.5124 23.1438 49.8798 22.8635 49.246C22.2907 48.7342 21.7904 48.149 21.3638 47.5274C21.1566 47.5396 20.9381 47.5393 20.7188 47.5393C18.6894 47.5393 17.0964 47.2039 15.8961 46.8109L16.1651 39.5436C17.382 40.4125 18.5531 41.0373 19.5119 41.3242C19.5485 39.9592 19.8783 38.7649 20.2927 37.7655C18.5742 37.1074 13.9543 33.8885 12.1018 28.1726L11.8471 27.4537L11.1996 27.1133C11.0412 27.028 9.75 26.2845 9.75 24.5782C9.75 23.5179 10.4927 22.6525 10.4927 22.6525L10.9687 22.1288V18.7273C11.7366 18.386 19.4756 14.9016 23.1562 9.84375L24.375 13.5C27.2756 13.5 28.0312 11.0625 28.0312 11.0625C29.055 12.5981 29.6773 15.2183 30.0308 17.3633C32.6145 16.1812 35.4783 15.5224 38.2692 15.1567C35.8195 7.90517 30.652 0.09375 20.5973 0.09375L20.5974 0.0937566ZM59.7188 0.0937566C45.3984 0.0937566 42.656 9.53974 42.6682 14.7926C44.2525 14.7316 45.7395 14.7188 47.0314 14.7188C47.397 13.2319 47.9456 11.8669 48.75 11.0625C48.75 11.0625 52.5769 12.2813 57.2812 12.2813C61.9856 12.2813 64.5938 11.0625 64.5938 11.0625C68.25 14.1947 68.25 22.0313 68.25 22.0313H68.2595L68.2619 22.1289L68.7142 22.6406C68.7264 22.6528 69.4688 23.5179 69.4688 24.5783C69.4688 26.2845 68.177 27.0283 68.0429 27.1015L67.3597 27.4418L67.1169 28.1726C65.2401 33.9495 59.6825 37.3388 58.4881 37.875H57.2812H56.4148C56.8779 38.8622 57.2569 40.0931 57.2812 41.5313H58.769C59.4477 41.5313 61.193 40.6931 63.1631 39.2128L63.6464 46.1968C62.4758 46.7771 60.3562 47.5393 57.2812 47.5393C56.5378 47.5393 55.8441 47.491 55.2103 47.4179C54.8325 47.8689 54.4539 48.2228 54.1249 48.5153C53.7836 49.344 53.3693 50.1606 52.9061 50.9528C54.3077 51.1721 55.77 51.2813 57.2812 51.2813C66.2269 51.2813 73.6496 47.235 75.234 43.9688L66.8694 39.8222L66.6099 36.054C68.1155 34.3572 69.4916 32.3085 70.3709 29.9412C71.614 29.0515 73.125 27.2595 73.125 24.5783C73.125 22.8964 72.4181 21.5559 71.9063 20.8125V17.7656V15.7661C71.9063 12.1409 70.8731 6.46465 67.8025 6.36842C67.7688 6.33294 67.7318 6.30114 67.6978 6.26606L67.593 5.91852C66.5327 2.45727 63.3384 0.0937566 59.7188 0.0937566ZM47.5312 17.1563C31.6875 17.1563 24.375 20.8125 24.375 33V34.8281V37.9298C23.8819 38.5898 23.1562 39.7499 23.1562 41.6479C23.1562 44.8696 25.124 46.3524 25.9722 46.9133C26.8693 49.3486 28.2218 51.4089 29.6737 53.0808L29.4119 56.8847L21.0425 61.0265C22.6256 64.2915 30.0568 68.3438 39 68.3438C47.9432 68.3438 55.3744 64.2915 56.9575 61.0265L48.5881 56.8847L48.3263 53.0808C49.7782 51.4089 51.1307 49.3486 52.0278 46.9133C52.876 46.3524 54.8438 44.8696 54.8438 41.6479C54.8438 39.7499 54.1181 38.5898 53.625 37.9298V34.8281V32.8262C53.625 29.1806 52.5848 23.4592 49.4713 23.4262C49.46 23.4144 49.4468 23.4046 49.4355 23.3928L47.5312 17.1563ZM30.4688 28.125C30.4688 28.125 34.2993 29.3438 39 29.3438C43.7007 29.3438 46.3125 28.125 46.3125 28.125C49.9688 31.2584 49.9688 39.0938 49.9688 39.0938V39.1937L50.4472 39.7174C50.4472 39.7174 51.1875 40.6323 51.1875 41.6479C51.1875 43.5802 49.7664 44.1592 49.7664 44.1592L49.0761 44.4996L48.8405 45.2327C47.832 48.3378 45.6891 50.8447 43.7012 52.5524C42.7073 53.4062 41.7556 54.0597 41.0519 54.4805C40.7 54.6909 40.4071 54.8437 40.2259 54.928C40.2135 54.9337 40.2158 54.9324 40.2045 54.9375H39H37.7955C37.7842 54.9324 37.7865 54.9337 37.7741 54.928C37.5929 54.8437 37.3 54.6909 36.9481 54.4805C36.2444 54.0597 35.2927 53.4062 34.2988 52.5524C32.3109 50.8447 30.1681 48.3378 29.1596 45.2327L28.9239 44.4996L28.2336 44.1592C28.2336 44.1592 26.8125 43.5802 26.8125 41.6479C26.8125 40.6323 27.5528 39.7174 27.5528 39.7174L28.0313 39.1937V39.0938C28.0313 39.0938 27.857 30.7368 30.4688 28.125H30.4688ZM33.1181 56.2705C33.8264 56.805 34.502 57.2782 35.07 57.6178C35.5117 57.882 35.8973 58.0859 36.2316 58.2415C36.3988 58.3193 36.5516 58.3847 36.7196 58.4438C36.8877 58.5029 36.9719 58.5938 37.5099 58.5938H39H40.4901C41.0281 58.5938 41.1123 58.5029 41.2804 58.4438C41.4484 58.3847 41.6012 58.3193 41.7684 58.2415C42.1027 58.0859 42.4883 57.882 42.93 57.6178C43.498 57.2782 44.1736 56.805 44.8819 56.2705L45.3627 63.2569C44.192 63.837 42.0743 64.5971 39 64.5971C35.9257 64.5971 33.808 63.837 32.6373 63.2569L33.1181 56.2705Z" fill="black"/>
<path d="M20.5974 0.0937566C6.05767 0.0937566 5.32594 17.6925 0 24.4688C0 27.1069 5.71224 34.4598 12.5922 37.2061L12.466 40.6553L2.85168 44.152C4.63106 47.3817 11.9438 51.2813 20.7188 51.2813C21.7669 51.2813 22.802 51.2193 23.8013 51.1218C23.4479 50.5124 23.1438 49.8798 22.8635 49.246C22.2907 48.7342 21.7904 48.149 21.3638 47.5274C21.1566 47.5396 20.9381 47.5393 20.7188 47.5393C18.6894 47.5393 17.0964 47.2039 15.8961 46.8109L16.1651 39.5436C17.382 40.4125 18.5531 41.0373 19.5119 41.3242C19.5485 39.9592 19.8783 38.7649 20.2927 37.7655C18.5742 37.1074 13.9543 33.8885 12.1018 28.1726L11.8471 27.4537L11.1996 27.1133C11.0412 27.028 9.75 26.2845 9.75 24.5782C9.75 23.5179 10.4927 22.6525 10.4927 22.6525L10.9687 22.1288V18.7273C11.7366 18.386 19.4756 14.9016 23.1562 9.84375L24.375 13.5C27.2756 13.5 28.0312 11.0625 28.0312 11.0625C29.055 12.5981 29.6773 15.2183 30.0308 17.3633C32.6145 16.1812 35.4783 15.5224 38.2692 15.1567C35.8195 7.90517 30.652 0.09375 20.5973 0.09375L20.5974 0.0937566ZM59.7188 0.0937566C45.3984 0.0937566 42.656 9.53974 42.6682 14.7926C44.2525 14.7316 45.7395 14.7188 47.0314 14.7188C47.397 13.2319 47.9456 11.8669 48.75 11.0625C48.75 11.0625 52.5769 12.2813 57.2812 12.2813C61.9856 12.2813 64.5938 11.0625 64.5938 11.0625C68.25 14.1947 68.25 22.0313 68.25 22.0313H68.2595L68.2619 22.1289L68.7142 22.6406C68.7264 22.6528 69.4688 23.5179 69.4688 24.5783C69.4688 26.2845 68.177 27.0283 68.0429 27.1015L67.3597 27.4418L67.1169 28.1726C65.2401 33.9495 59.6825 37.3388 58.4881 37.875H57.2812H56.4148C56.8779 38.8622 57.2569 40.0931 57.2812 41.5313H58.769C59.4477 41.5313 61.193 40.6931 63.1631 39.2128L63.6464 46.1968C62.4758 46.7771 60.3562 47.5393 57.2812 47.5393C56.5378 47.5393 55.8441 47.491 55.2103 47.4179C54.8325 47.8689 54.4539 48.2228 54.1249 48.5153C53.7836 49.344 53.3693 50.1606 52.9061 50.9528C54.3077 51.1721 55.77 51.2813 57.2812 51.2813C66.2269 51.2813 73.6496 47.235 75.234 43.9688L66.8694 39.8222L66.6099 36.054C68.1155 34.3572 69.4916 32.3085 70.3709 29.9412C71.614 29.0515 73.125 27.2595 73.125 24.5783C73.125 22.8964 72.4181 21.5559 71.9063 20.8125V17.7656V15.7661C71.9063 12.1409 70.8731 6.46465 67.8025 6.36842C67.7688 6.33294 67.7318 6.30114 67.6978 6.26606L67.593 5.91852C66.5327 2.45727 63.3384 0.0937566 59.7188 0.0937566ZM47.5312 17.1563C31.6875 17.1563 24.375 20.8125 24.375 33V34.8281V37.9298C23.8819 38.5898 23.1562 39.7499 23.1562 41.6479C23.1562 44.8696 25.124 46.3524 25.9722 46.9133C26.8693 49.3486 28.2218 51.4089 29.6737 53.0808L29.4119 56.8847L21.0425 61.0265C22.6256 64.2915 30.0568 68.3438 39 68.3438C47.9432 68.3438 55.3744 64.2915 56.9575 61.0265L48.5881 56.8847L48.3263 53.0808C49.7782 51.4089 51.1307 49.3486 52.0278 46.9133C52.876 46.3524 54.8438 44.8696 54.8438 41.6479C54.8438 39.7499 54.1181 38.5898 53.625 37.9298V34.8281V32.8262C53.625 29.1806 52.5848 23.4592 49.4713 23.4262C49.46 23.4144 49.4468 23.4046 49.4355 23.3928L47.5312 17.1563ZM30.4688 28.125C30.4688 28.125 34.2993 29.3438 39 29.3438C43.7007 29.3438 46.3125 28.125 46.3125 28.125C49.9688 31.2584 49.9688 39.0938 49.9688 39.0938V39.1937L50.4472 39.7174C50.4472 39.7174 51.1875 40.6323 51.1875 41.6479C51.1875 43.5802 49.7664 44.1592 49.7664 44.1592L49.0761 44.4996L48.8405 45.2327C47.832 48.3378 45.6891 50.8447 43.7012 52.5524C42.7073 53.4062 41.7556 54.0597 41.0519 54.4805C40.7 54.6909 40.4071 54.8437 40.2259 54.928C40.2135 54.9337 40.2158 54.9324 40.2045 54.9375H39H37.7955C37.7842 54.9324 37.7865 54.9337 37.7741 54.928C37.5929 54.8437 37.3 54.6909 36.9481 54.4805C36.2444 54.0597 35.2927 53.4062 34.2988 52.5524C32.3109 50.8447 30.1681 48.3378 29.1596 45.2327L28.9239 44.4996L28.2336 44.1592C28.2336 44.1592 26.8125 43.5802 26.8125 41.6479C26.8125 40.6323 27.5528 39.7174 27.5528 39.7174L28.0313 39.1937V39.0938C28.0313 39.0938 27.857 30.7368 30.4688 28.125H30.4688ZM33.1181 56.2705C33.8264 56.805 34.502 57.2782 35.07 57.6178C35.5117 57.882 35.8973 58.0859 36.2316 58.2415C36.3988 58.3193 36.5516 58.3847 36.7196 58.4438C36.8877 58.5029 36.9719 58.5938 37.5099 58.5938H39H40.4901C41.0281 58.5938 41.1123 58.5029 41.2804 58.4438C41.4484 58.3847 41.6012 58.3193 41.7684 58.2415C42.1027 58.0859 42.4883 57.882 42.93 57.6178C43.498 57.2782 44.1736 56.805 44.8819 56.2705L45.3627 63.2569C44.192 63.837 42.0743 64.5971 39 64.5971C35.9257 64.5971 33.808 63.837 32.6373 63.2569L33.1181 56.2705Z" fill="url(#paint0_radial_1_832)"/>
<defs>
<radialGradient id="paint0_radial_1_832" cx="0" cy="0" r="1" gradientUnits="userSpaceOnUse" gradientTransform="translate(37.617 0.103056) rotate(90) scale(68.2407 75.2238)">
<stop stop-color="#8D90FF"/>
<stop offset="1" stop-color="#5458F7"/>
</radialGradient>
</defs>
</svg>
