<svg width="78" height="78" viewBox="0 0 78 78" fill="none" xmlns="http://www.w3.org/2000/svg">
<path d="M63.9174 68.4699C61.4188 70.9685 61.3092 71.1139 61.3208 71.1023C53.1803 79.2393 40.0061 79.2592 31.8451 71.1186C31.0974 70.3708 7.71083 46.9843 6.08648 45.3599C-2.02875 37.2447 -2.02875 24.0418 6.08648 15.9266L8.73032 13.2827C11.7842 10.2288 16.7236 10.2355 19.7674 13.2827L27.0111 20.5248C30.0549 23.5686 30.0549 28.5197 27.0111 31.5635L23.9836 34.5911C22.5462 36.0285 22.5462 38.365 23.9836 39.8023L37.3978 53.2166C38.8336 54.654 41.1717 54.654 42.6091 53.2166L45.6366 50.1891C48.6805 47.1452 53.6315 47.1452 56.6754 50.1891L63.9174 57.4328C66.9606 60.4725 66.9754 65.4117 63.9174 68.4699ZM78 7.28941V20.2972C78 23.8841 75.083 26.8011 71.4961 26.8011H51.1893L42.2449 32.1456C41.3798 32.6606 40.2774 32.0395 40.2774 31.0286V26.8011H38.9767C35.3898 26.8011 32.4728 23.8841 32.4728 20.2972V7.28941C32.4728 3.70252 35.3898 0.785522 38.9767 0.785522H71.4961C75.083 0.785522 78 3.70252 78 7.28941ZM41.7408 17.0452V16.0697C41.7408 15.5316 42.1784 15.0941 42.7164 15.0941C44.6889 15.0941 46.2935 13.4894 46.2935 11.5169C46.2935 9.54447 44.6889 7.9398 42.7164 7.9398H40.44C39.7217 7.9398 39.1393 8.52222 39.1393 9.24058C39.1393 9.95893 39.7217 10.5414 40.44 10.5414H42.7164C43.2544 10.5414 43.692 10.9789 43.692 11.5169C43.692 12.055 43.2544 12.4925 42.7164 12.4925C40.7439 12.4925 39.1393 14.0972 39.1393 16.0697V18.346C39.1393 19.0644 39.7217 19.6468 40.44 19.6468H44.9928C45.7111 19.6468 46.2935 19.0644 46.2935 18.346C46.2935 17.6277 45.7111 17.0452 44.9928 17.0452H41.7408ZM55.399 9.24058C55.399 8.52223 54.8165 7.93981 54.0982 7.93981C53.3798 7.93981 52.7974 8.52223 52.7974 9.24058V12.4925H50.8463V9.24058C50.8463 8.52223 50.2638 7.93981 49.5455 7.93981C48.8271 7.93981 48.2447 8.52223 48.2447 9.24058V13.7933C48.2447 14.5117 48.8271 15.0941 49.5455 15.0941H52.7974V18.346C52.7974 19.0644 53.3798 19.6468 54.0982 19.6468C54.8165 19.6468 55.399 19.0644 55.399 18.346C55.399 17.2409 55.399 10.35 55.399 9.24058ZM61.2055 7.97509C60.5084 7.80111 59.8023 8.22467 59.628 8.92157L57.3516 18.027C57.1775 18.7241 57.6012 19.4302 58.2981 19.6045C58.996 19.7788 59.7015 19.3543 59.8756 18.658L62.152 9.5526C62.3263 8.85555 61.9025 8.14939 61.2055 7.97509ZM69.9955 7.9398H65.48C64.7616 7.9398 64.1792 8.52222 64.1792 9.24058C64.1792 9.95893 64.7616 10.5414 65.48 10.5414H68.1729L65.6354 17.9231C65.3439 18.7712 65.9784 19.6476 66.8656 19.6471C67.4056 19.6471 67.9103 19.3083 68.0957 18.7689L71.2257 9.66349C71.5156 8.81961 70.8877 7.9398 69.9955 7.9398Z" fill="url(#paint0_radial_1_823)"/>
<defs>
<radialGradient id="paint0_radial_1_823" cx="0" cy="0" r="1" gradientUnits="userSpaceOnUse" gradientTransform="translate(39 0.795944) rotate(90) scale(76.4186 77.9893)">
<stop stop-color="#8D90FF"/>
<stop offset="1" stop-color="#5458F7"/>
</radialGradient>
</defs>
</svg>
